/* XPM */
static char *e7c461ac225749eef58250e089e99d92SePFoMD5qMZA3vb5[] = {
/* columns rows colors chars-per-pixel */
"60 60 37 1 ",
"  c #2E2541",
". c #230B04",
"X c #713F0E",
"o c #AA7518",
"O c #5B2D0B",
"+ c #E4755B",
"@ c #92340B",
"# c #587090",
"$ c #2121B9",
"% c #EAC496",
"& c #752700",
"* c #F8F8F8",
"= c #4F5BEA",
"- c #030203",
"; c #3D0500",
": c #0E0E18",
"> c #4F4B5F",
", c #717F83",
"< c #9696B9",
"1 c #0E143C",
"2 c #030723",
"3 c #E4E4EA",
"4 c #6D0103",
"5 c #97A8D4",
"6 c gray97",
"7 c #4D6586",
"8 c #D40300",
"9 c #496284",
"0 c #CB8E20",
"q c #F7EE5D",
"w c #9F5D19",
"e c #122E36",
"r c #141A21",
"t c #EAF031",
"y c #E47F00",
"u c #232731",
"i c #203DD4",
/* pixels */
"                                                            ",
"                                                            ",
"                                                            ",
"                                                            ",
"                                                            ",
"                          .   ..                            ",
"                         .X.. .o.                           ",
"                          .XX.XoX..                         ",
"                        .....XOXo.X.                        ",
"                       .XoooXOOOo.XX.                       ",
"                        .XoooXXOXXXXX.                      ",
"                       .XOOXXoXOXXXXo.                      ",
"                      ..XOXOOOXXXo.XXo.                     ",
"                     .XoOooXOXoX.oo.ooo.                    ",
"                    .Xo.XoX..oo.o.Xo.Xoo.                   ",
"                    ....oX.+.o.@+X...X...                   ",
"                       .X.o..X.+..o.X.                      ",
"                      .X..X#$.@%$#X...                      ",
"                       . .&*=+%%=*+. .                      ",
"                         -;+%%%%%+&.                        ",
"                        --:;@+%+@&:>-                       ",
"                       ->,,<;&@&;>>,>-                      ",
"                       -:>,,<@+@>>,,>:-                     ",
"                      -:::>>1<1>->>>::-                     ",
"                      -::::-11<2:-:::::-                    ",
"                       -::-:1<3>:::::::-                    ",
"                     --+---312>43:-::--                     ",
"                    -5-+@-:324443:---@+&                    ",
"                    -67-;::344843::-9&+&-                   ",
"                   -0-57;::348843:::-7&55-                  ",
"                   -7--;:<33-8843::<-5667-                  ",
"                  -757&qw:-------33--770-                   ",
"                  -56eq0;:::-:--::r:---75-                  ",
"                  -650q&;tr::---:::r@-566-                  ",
"                  ;+&q0;:r@yt:-:rryt-766-7-                 ",
"                  &;w0&:ruur:@-yt@r:-76765-                 ",
"                  ei0&<<ruurr::ruuu:-&%&57-                 ",
"                  eii---<<urr:-ruuuu:;+@+&                  ",
"                  56e -:r:<>>--:ru<>>:&&;                   ",
"                  65e  ---ur:>-<<<r::r:-                    ",
"                 56e     &-----:ruuur--                     ",
"                 65e     &@+-  ------                       ",
"                56e      &%+&   &%+@                        ",
"                65e       &@&   ;@%@;                       ",
"               56e      &;+&w;  ;&+;w;                      ",
"               65e     ;q0&;0; ;q;@;0;                      ",
"              ee       ;0-wqw- ;q0:qw;                      ",
"             e57e----  &0qq0::-:&qw0:;                      ",
"            e767-<rur--->:::::--:::>5-                      ",
"            e55e:>uuu<><:::::>--::::<:-                     ",
"           e76e-:<rruurr::::<:--:::rr>:-                    ",
"           e57e-:>rrrrrr::<>-- -::rru<rr-                   ",
"          e55e -<><>rrr::>--    -:ruuu>rr-                  ",
"          e57e -::::<::><-      -::rrr<r:-                  ",
"           ee   ----:><:-       -:::::>::-                  ",
"                    ----        -<><><><>-                  ",
"                                 --------                   ",
"                                                            ",
"                                                            ",
"                                                            "
};
