/* XPM */
static char *_33d6f026eea4d6eab21c9af823cd9369awVdbJLm6QyD0Ps[] = {
/* columns rows colors chars-per-pixel */
"60 60 240 2 ",
"   c #17120D",
".  c #1D1611",
"X  c #110D07",
"o  c #28180B",
"O  c #311D0A",
"+  c #241B15",
"@  c #2A1E15",
"#  c #301F12",
"$  c #38240C",
"%  c #2A221A",
"&  c #352314",
"*  c #3A2819",
"=  c #3A2D24",
"-  c #342A24",
";  c #3E322A",
":  c #342E29",
">  c #452E16",
",  c #4C341C",
"<  c #4B3215",
"1  c #5A3B1B",
"2  c #553716",
"3  c #4A2D0D",
"4  c #603F1A",
"5  c #483628",
"6  c #523B24",
"7  c #573C26",
"8  c #4A3E36",
"9  c #513F32",
"0  c #412D20",
"q  c #5C411B",
"w  c #69461B",
"e  c #744D1C",
"r  c #79521D",
"t  c #5C4125",
"y  c #5B442B",
"u  c #5A4426",
"i  c #5B4532",
"p  c #584638",
"a  c #4E443B",
"s  c #634525",
"d  c #6C4B24",
"f  c #634629",
"g  c #6C4C2A",
"h  c #654A27",
"j  c #724E29",
"k  c #734E25",
"l  c #6C512A",
"z  c #745124",
"x  c #7B5324",
"c  c #74522B",
"v  c #7C542A",
"b  c #7C5A2B",
"n  c #624D38",
"m  c #6A5237",
"M  c #775735",
"N  c #7E653D",
"B  c #4B4743",
"V  c #574D44",
"C  c #5C5147",
"Z  c #5D5652",
"A  c #715B45",
"S  c #675E55",
"D  c #655649",
"F  c #7B6949",
"G  c #736350",
"H  c #6C635A",
"J  c #6D6964",
"K  c #74716D",
"L  c #8A570E",
"P  c #875917",
"I  c #925E12",
"U  c #925D0E",
"Y  c #996615",
"T  c #906117",
"R  c #A97317",
"E  c #B57E1B",
"W  c #A46E1A",
"Q  c #855C24",
"!  c #8B5E22",
"~  c #835B2B",
"^  c #8A5D2A",
"/  c #835626",
"(  c #835E33",
")  c #8C612B",
"_  c #966725",
"`  c #9E7024",
"'  c #856338",
"]  c #946A33",
"[  c #9B7337",
"{  c #AD7B25",
"}  c #A97626",
"|  c #B37D27",
" . c #AC7C3B",
".. c #A77836",
"X. c #B27E33",
"o. c #8D724E",
"O. c #A87D4A",
"+. c #86786A",
"@. c #8B7C6E",
"#. c #B38224",
"$. c #BB862C",
"%. c #B98528",
"&. c #B48232",
"*. c #B5843B",
"=. c #BC8837",
"-. c #AE8137",
";. c #C38D2B",
":. c #C48C24",
">. c #CB942D",
",. c #C8912A",
"<. c #C38D32",
"1. c #CB9435",
"2. c #C9943A",
"3. c #D49C35",
"4. c #D39C3A",
"5. c #D89F31",
"6. c #D29A2E",
"7. c #DBA236",
"8. c #DCA33A",
"9. c #D8A33C",
"0. c #E1AA3D",
"q. c #B68948",
"w. c #B0884D",
"e. c #948577",
"r. c #AA9277",
"t. c #B59468",
"y. c #C69445",
"u. c #D19C46",
"i. c #C69854",
"p. c #D7A347",
"a. c #D7A659",
"s. c #C09661",
"d. c #D6A967",
"f. c #D5AD74",
"g. c #DCB377",
"h. c #CEA973",
"j. c #E4B36D",
"k. c #E3B776",
"l. c #E0AD60",
"z. c #EEC07F",
"x. c #98938F",
"c. c #A49689",
"v. c #AB9F94",
"b. c #BEB7B4",
"n. c #C7AE89",
"m. c #D7B688",
"M. c #CAB698",
"N. c #D3BB9B",
"B. c #E3BC83",
"V. c #E7BE87",
"C. c #C5BAAB",
"Z. c #CABCAB",
"A. c #C9B9A4",
"S. c #C7BDB1",
"D. c #D5BFA9",
"F. c #E9C28B",
"G. c #E4C394",
"H. c #E6C59A",
"J. c #EAC99A",
"K. c #F2D19F",
"L. c #F0CE9C",
"P. c #D4C2A8",
"I. c #CEC2B3",
"U. c #CEC5BC",
"Y. c #C3C1BE",
"T. c #D1C3B3",
"R. c #D1C7BA",
"E. c #D3C9BE",
"W. c #DBC9B7",
"Q. c #CEC1AF",
"!. c #ECCDA3",
"~. c #E9CDA8",
"^. c #EDD2AD",
"/. c #EFD3A6",
"(. c #F1D4AC",
"). c #F0D1A4",
"_. c #EED5B4",
"`. c #EFDBBC",
"'. c #EAD5B6",
"]. c #F2D9B5",
"[. c #F2DABC",
"{. c #F1D5B5",
"}. c #C5C5C4",
"|. c #C9C9C7",
" X c #CCCBCA",
".X c #CAC6C3",
"XX c #D5CCC4",
"oX c #D2CFD1",
"OX c #D4D1D2",
"+X c #DBD1C7",
"@X c #E9DACB",
"#X c #F3DDC2",
"$X c #F0DFCA",
"%X c #F4E1C5",
"&X c #F4E2CC",
"*X c #F9E5CD",
"=X c #F8E1C4",
"-X c #EDE5DC",
";X c #E8E1D8",
":X c #F5E5D3",
">X c #F9E6D2",
",X c #F9E9D5",
"<X c #F3E6DB",
"1X c #F5EADC",
"2X c #FAECDC",
"3X c #F6E9D7",
"4X c #FCF1DE",
"5X c #F5ECE3",
"6X c #FBEEE3",
"7X c #F3EEEA",
"8X c #F8ECE6",
"9X c #F6F2E6",
"0X c #FBF1E5",
"qX c #F7F2EB",
"wX c #FCF4EC",
"eX c #FDF9EE",
"rX c #F5F4F3",
"tX c #FCF6F3",
"yX c #FDFAF5",
"uX c #FBFAF9",
"iX c #FBFCFA",
"pX c #FDFDFB",
"aX c #FCFDFA",
"sX c #FDFEFA",
"dX c #FBFFFF",
"fX c #FBFEFD",
"gX c #FDFDFD",
"hX c #FDFDFC",
"jX c #FDFFFC",
"kX c #FEFEFC",
"lX c #FFFFFD",
"zX c #FEFFFD",
"xX c #FCFFFF",
"cX c #FEFEFE",
"vX c white",
"bX c #FEFFFE",
"nX c #FEFCFC",
"mX c #FEFCFB",
"MX c #FCF7F8",
"NX c #EBEAE7",
/* pixels */
"vXvXvXvXvXvXvXvXvXvXvXvXvXvXvXvXvXvXvXvXvXvXvXvXvXvXvXvXvXvXvXvXvXvXvXvXvXvXvXvXvXvXvXvXvXvXvXvXvXvXvXvXvXvXvXvXvXvXvX X",
"vXvXvXvXvXvXvXvXvXvXvXvXvXvXvXvXvXvXvXvXvXvXvXvXvXvXvXvXvXvXvXvXvXvXvXvXvXvXvXvXvXvXvXvXvXvXvXvXvXvXvXvXvXvXvXvXvXvXvX X",
"vXvXvXvXvXvXvXvXvXvXvXvXvXvXvXvXvXvXvXvXvXvXvXvXvXvXvXvXvXvXsXsXsXsXvXvXsXsXsXsXsXsXvXvXvXvXvXvXvXvXvXvXvXvXvXvXvXvXvX X",
"vXvXvXvXvXvXvXvXvXvXvXvXvXvXvXvXvXvXvXvXvXvXvXvXvXvXvXvXsXvXvXsXvXvXvXvXsXsXsXsXsXsXsXvXvXvXvXvXvXvXvXvXvXvXvXvXvXvXvX X",
"vXvXvXvXvXvXvXvXvXvXvXvXvXvXvXvXvXvXvXvXvXvXvXvXvXvXvXvXsXsXsXvXvXvXvXvXvXvXvXvXsXsXvXvXvXvXvXvXvXvXvXvXvXvXvXvXvXvXvX X",
"vXvXvXvXvXvXvXvXvXvXvXvXvXvXvXvXvXvXvXvXvXvXvXvXvXvXvXvXsXsXvXvXvXsXvXvXvXvXvXvXsXsXvXvXvXvXvXvXvXvXvXvXvXvXvXvXvXvXvX X",
"vXvXvXvXvXvXvXvXvXvXvXvXvXvXvXvXvXvXvXvXvXvXvXvXvXvXvXvXvXsXsXsXsXsXsXsXsXsXsXsXsXsXsXvXvXvXvXvXvXvXvXvXvXvXvXvXvXvXvXOX",
"vXvXvXvXvXvXvXvXvXvXvXvXvXvXvXvXvXvXvXvXvXvXvXvXvXvXvXvXsXsXsXsXsXsXsXsXsXsXsXsXsXsXsXvXvXvXvXvXvXvXvXvXvXvXvXvXvXvXvX X",
"vXvXvXvXvXvXvXvXvXvXvXvXvXvXvXvXvXvXvXvXvXvXvXvXvXvXvXsXsXsXsXsXvXvXsXsXsXsXsXsXsXsXsXvXvXvXvXvXvXvXvXvXvXvXvXvXvXvXvX}.",
"vXvXvXvXvXvXvXvXvXvXvXvXvXvXvXvXvXvXvXvXvXvXvXvXvXvXvXsXsXsXsXsXvXvXsXsXsXsXsXsXsXsXsXvXvXvXvXvXvXvXvXvXvXvXvXvXvXvXvX}.",
"vXvXvXvXvXvXvXvXvXvXvXvXvXvXvXvXvXvXvXvXvXvXvXvXvXvXvXsXsXsXsXsXvXvXvXvXsXsXsXsXsXsXsXvXvXvXvXvXvXvXvXvXvXvXvXvXvXvXvX X",
"vXvXvXvXvXvXvXvXvXvXvXvXvXvXvXvXfXvXfXiXiXNX XY.S.}.|. X X X|.|.}.OX7XvXsXiXuXiXiXsXsXvXvXvXvXvXvXvXvXvXvXvXvXvXvXvXvX X",
"vXvXfXfXfXfXvXvXvXvXvXvXvXvXfXiXiXiXuXrXrX}.K B B V S J J J H S Z @.OXsXsXuXrXrXtXiXuXvXfXfXfXfXvXvXvXvXvXvXvXvXvXvXsX|.",
"vXvXsXfXfXfXfXfXfXfXfXfXfXiXiXiXiXiXuXNX}.x.; X X   % - : : - % % B x.oXNXtXrXrXtXiXuXvXfXfXfXfXfXfXfXvXfXvXvXvXsXsXsX|.",
"vXvXvXvXfXfXfXfXfXfXfXfXrXrXiXsXsXuXsX XK ; +   . .     + + + @ % : 8 K .XtXtXtXuXuXuXiXvXvXvXvXvXvXvXvXvXvXvXvXsXsXsX X",
"sXvXvXvXfXfXfXfXfXfXfXfXrXrXiXiXtXtXuXY.B   . + % % . . + @ + @ - % + V b.qXtXuXsXnXuXiXvXvXvXvXvXvXvXvXvXvXvXvXvXvXvX X",
"sXsXsXsXsXsXsXsXfXfXfXfXiXiXtXqX7X7XuXY.C + % % = ; ; 5 5 5 - - = = % Z S.qXtXtXsXvXuXuXsXvXvXsXvXsXvXvXvXvXsXsXvXvXvX X",
"sXsXsXsXsXsXsXsXfXfXfXiXuXtXtXqX7X;XXXx.a @ % - = 5 9 p p 9 5 5 5 5 ; C c..X-XtXuXuXuXuXsXsXsXsXsXsXsXsXsXsXvXsXvXvXvX X",
"sXsXsXsXyXuXuXuXuXuXuXrX7X7XwXtXwXXX+.a * @ # & & 0 9 p p p p p 9 8 5 8 a +..X7XwXtXuXuXuXuXyXyXyXsXsXsXsXsXsXsXvXvXvX X",
"sXsXsXyXuXuXuXuXuXtXtXqX5X5XwX5XXXc.a o & & * * & > 6 i i p p p i 9 5 5 * p c.XX;XwXtXyXyXuXuXuXuXuXuXsXsXsXsXsXvXvXvX|.",
"sXsXsXuXuXuXuXyXtXtXwXwXeXwX0XE.@.p * & > 5 6 6 > > , 6 6 7 7 7 7 6 6 5 5 p D e.E.6X0XwXwXtXyXyXyXuXuXyXsXsXsXsXvXvXvX|.",
"sXsXuXuXuXuXtXtXwXwXwXwXwX-XR.c.p * * > 6 u t t 7 2 2 1 7 s f f f t 6 6 i i 5 G Z.2X0X0XwXwXwXtXtXyXuXuXuXsXsXsXvXvXvX}.",
"sXsXuXuXyXtXwXwXwX0X0X0X1XI.+.p 6 5 6 6 t s f f s s s d g c M M M m t 7 y y 6 G Z.,X4XwXwXwXwXwXwXwXyXyXuXuXsXvXvXvXvX}.",
"sXuXuXuXtXtXwX0X0X0X0X6X3XM.n $ < 6 t y f h d d j j k k v b ( ' M c h y y y u F Z.,X,X4X0X0X0XwXwXwXtXyXuXuXsXvXvXvXvX}.",
"sXuXuXuXtXwXwX0X0X0X0X6X,XA.m $ > , t s g g d k v v v x z v ( ( c z l l h u u F P.,X&X:X2X0X0X0XwXwXtXtXuXuXsXvXvXvXvX}.",
"sXuXuXyXtXwX0X0X0X6X6X2X,XP.o.h 2 2 1 s g c k z x / ~ ~ x x ~ ~ x z c l l h q F N.&X%X&X3X0X0X0X0XwXwXtXuXuXuXvXvXvXvX}.",
"sXuXuXtXwXwX0X0X0X6X6X3X%X'.N.r.m 2 2 q d v ~ ~ x x ^ ) Q / / / ~ b z d l h q F M.`.#X&X2X6X0X0X0X0XwXtXyXuXuXvXvXvXvX X",
"uXuXuXtXwX0X0X0X6X6X2X,X#X[.[.M.N q w w r x Q Q P P _ _ ! P P P Q Q r r b b w N n.^.`.=X,X2X6X6X0X0XwXwXyXuXuXvXvXvXvX|.",
"uXuXuXtXwXwX0X6X2X3X,X*X#X[._.n.' e ) ) P L L L U T Y Y T I U L I P P ) [ [ e ' h.~.^.`.*X,X,X3X6X0X0XwXtXuXuXuXuXuXuX}.",
"iXuXuXtXwXwX6X6X3X,X:X*X#X[.(.m.O.]  ...Y I U Y W R R R R W Y Y Y Y Y } *.w.] O.m.!./.].=X*X>X,X2X6XwXwXtXuXuXuXuXuXuX}.",
"iXiXuXtXwXwX6X2X3X:X:X#X[._.(.H.h.s.q.*.} } } | $.;.;.;.1.<.$.#.} } &.*. .w.h.m.J./.^.].=X*X>X,X2X6XwXwXtXuXuXuXuXnXnX}.",
"sXiXuXtXwXwX5X1X3X:X&X#X_.^.~.J.V.g.i.*.X.| $.<.1.4.4.4.9.4.1.$.| &.2.y...q.g.L.K./.^.].#X&X:X,X3X6XwXwXtXuXuXuXnXnXnX}.",
"sXsXuXtXwX9X5X1X3X:X&X#X^.!.J.J.F.g.i.*.{ | <.4.4.9.4.3.3.4.>.:.#.%.u.y...*.d.F.J.!.!.^.[.*X*X3X3X6XwXwXtXuXuXvXvXvXvX}.",
"sXsXuXtXwX9X5X3X3X&X&X#X^.!.H.G.F.k.i.*.&.$.;.1.9.8.7.5.7.3.>.:.#.$.u.u.=.q.d.B.J.!.!.^.[.*X&X:X3X6X0XwXtXuXuXvXvXvXvX|.",
"vXsXuXtXwX9X5X3X:X&X&X#X].).G.B.F.g.y.=.2.1.#.%.3.8.5.5.0.8.6.:.%.;.u.p.a.d.f.B.K.(.!.^.[.&X&X:X3X5X0XwXtXuXvXvXvXvXvXoX",
"vXsXuXtXwX9X5X<X:X&X$X#X].).G.m.B.j.i.y.p.4.E E 3.0.5.7.0.0.>.:.:.;.2.p.l.j.k.V.K.(.!.~.[.#X&X:X3X5X0XwXtXuXvXvXvXvXvXoX",
"vXsXuXtXwX9X5X<X:X&X$X`.(.!.G.F.B.g.d.a.p.4.E E >.7.7.7.7.5.,.:.:.;.<.y.a.k.V.F.G.H.H.~.`.#X&X:X3X5X0XwXtXuXvXvXvXvXvX X",
"sXsXuXtXwX9X5X3X:X&X&X`.^.J.G.F.V.g.a.p.p.2.E E >.7.8.8.7.6.,.:.,.<.$.2.a.k.F.F.G.G.!.^.`.$X&X:X3X6X0XwXtXuXvXvXvXvXvX X",
"sXsXuXtXwX9X5X3X:X&X&X#X^.J.G.G.F.g.q.*.2.<.E E >.9.0.0.9.3.>.>.1.<.=.y.j.z.V.V.G.H./.{.#X*X&X:X3X6X0XwXtXuXuXvXvXvXvXoX",
"sXsXuXtXwX9X5X1X3X:X&X#X_.!.H.G.J.g.-.` &.&.{ #.,.4.p.p.9.4.1.<.<.$.&.y.j.F.B.V.J.!.(.[.#X*X*X3X3X6X0XwXtXuXuXvXnXnXnXOX",
"sXiXuXtXwXwX6X1X3X:X&X#X[.^.!.J.J.f.[ T ` { #.%.;.1.9.p.u.2.<.%.{ } } *.d.V.B.F.!.(.^._.#X&X:X,X3X6XwXwXtXuXuXnXnXnXnXOX",
"iXiXuXtXwXwX5X2X3X:X:X*X[._.^.!.J.h.[ P ` } #.%.$.$.1.1.2.<.| { { } ` ..i.f.B.G./.(.^._.#X*X>X,X2X9XwXwXtXuXuXuXuXuXuXOX",
"iXuXuXtXwXwX6X6X3X3X:X*X[._.^./.).f.[ ! ..&.&.{ #.#.#.#.| { W } &.X._ _ [ w.m.L.!.^._.[.=X*X>X,X2X9X0XwXtXuXuXuXuXuXuXoX",
"uXuXuXtXwXwX0X6X2X3X,X*X#X[._.~.m.t.] Q [ ..} } { #.{ { } ` Y ` X. ._ ! Q [ t.m.!.^.].[.*X,X,X3X2X0XwXwXtXuXuXuXuXuXuX X",
"yXtXtXeXwX0X0X0X6X6X6X3X*X[._.N.t.' b x Q ! ! _  .*.*.*.q. ._ ! _ ] ] ^ ~ b ' w.N.].[.#X>X3X2X2X0X0XwXeXyXuXuXsXsXsXsX|.",
"yXyXeXeXwXwX0X0X0X6X6X2X*X'.N.r.o.g c z z r r ! .. . . .O...^ / ^ ^ ( ( z d q o.M.[.[.=X,X2X6X0X0XwXwXeXyXyXyXsXsXsXsX|.",
"yXyXyXyXwXwXwX0X0X6X6X2X&XD.@.M m g c c z z r r Q ) ] ] ] ) / / ~ ~ v j w 1 2 M n.[.=X*X3X6X6X0X0XwXeXyXyXyXsXsXsXsXuX|.",
"yXyXyXyXtXwXwXwX0X0X0X6X:XP.e.A y t s d d w w w e r Q ^ ~ ~ v v v k w 4 1 t m @.N.=X*X,X2X6X6X0X0XwXyXyXuXyXsXsXsXvXnX}.",
"sXyXuXuXtXtXtXwXwXwXwX6X3X@XW.c.n > < 2 2 2 2 1 w e x v v v b c w 1 < 3 < m r.P.$X2X2X2X6X6XwX0XwXtXyXuXuXsXsXvXvXvXvX}.",
"sXsXuXuXtXtXtXtXtXwXwX0X6X2X2XT.+.i , > 3 3 3 2 2 4 d j j j c h 1 1 f m A @.D.:X2X0X0X0X6XwXwXwXtXtXuXuXsXsXvXvXvXnXvX}.",
"vXnXuXuXuXtXtXtXtXtXtXwX0X6X<X@XR.c.i O $ $ < < 3 3 s h s t t 7 , m r.A.A.W.@X3X2X6X6X6XwXwXwXtXtXtXuXuXnXvXvXvXnXnXnX}.",
"vXvXuXuXuXuXtXtXtXtXtXtXtXwX<X<X6XE.+.p n i 6 > $ $ , 6 6 , , , > A A.3X3X2X1X5X5X5X6XwXwXtXtXtXtXMXuXnXvXvXvXvXnXnXnX}.",
"nXvXnXuXuXuXMXtXtXtXtXtXuXtX5X-XwX<XXXC.A.r.n * $ O O & * * * * * S I.0X1X<X5X5X5X9XtXuXtXtXtXtXuXuXuXvXvXvXvXvXvXvXnX}.",
"nXvXnXnXuXuXuXuXuXuXuXuXuXtX9X5XwXwXwX0X<XI.@.p 0 & o o # & & 5 C e.+XwX1X<X5X7X9XwXtXuXtXtXMXuXuXuXvXvXvXvXvXvXvXvXnX}.",
"nXnXvXvXsXsXuXuXuXuXuXuXtXtXtXtXwXwXwXwX<X@XR.c.D * & o o # = D v.XX-X5X-X-X7XwXuXuXqXqXtXiXuXuXnXvXvXvXvXvXvXvXsXsXuX}.",
"vXvXvXvXsXsXsXsXsXsXsXyXtXeXtXtXwXwXeXwX5X5X1XE.e.G D C V C S e.+XwXwX5X5X5X9XtXyXuXrXqXtXiXuXnXnXvXvXvXvXsXvXsXsXsXuX}.",
"vXvXsXsXsXsXsXsXsXsXsXyXyXeXwXwXeXeXeXeXeXwX5X;X+XI.S.C.S.S.C.R.<XeXeXeXwXwXwXwXyXyXyXtXuXfXsXvXvXvXvXvXvXsXsXsXsXsXuX.X",
"vXsXsXsXsXsXsXsXsXsXsXyXyXeX9X9XwXeXeXeXeXwX9X9XwXwX0X0XwX0X1X1XwXeXyXyXyXeXwXwXtXyXyXuXfXsXsXsXvXvXsXsXsXsXsXsXyXyXuX.X",
"sXsXsXsXsXsXsXsXsXsXsXyXeXwX9X9X9X9XeXeXwX9XwXwXeXeXwXwXwXeXwXwXeXeXeXeXwXwXyXtXqXqXeXtXuXsXsXsXsXsXsXsXsXsXsXyXyXyXuXU.",
"U.U.E.E.E.E.R.R.R.U.U.I.I.Q.C.C.C.C.I.I.Z.Z.Q.I.I.I.Q.Q.T.T.T.T.T.T.T.T.S.I.I.I.S.C.S.I.U.U.U.R.R.R.R.R.R.R.R.R.R.R.T.v."
};
